<svg width="25" height="26" viewBox="0 0 25 26" fill="none" xmlns="http://www.w3.org/2000/svg">
<path d="M20.5 2.5H4.5C3.12 2.5 2 3.62 2 5V21C2 22.38 3.12 23.5 4.5 23.5H20.5C21.88 23.5 23 22.38 23 21V5C23 3.62 21.88 2.5 20.5 2.5ZM8.5 10.5V20H5.5V10.5H8.5ZM5.5 7.735C5.5 7.035 6.1 6.5 7 6.5C7.9 6.5 8.465 7.035 8.5 7.735C8.5 8.435 7.94 9 7 9C6.1 9 5.5 8.435 5.5 7.735ZM19.5 20H16.5C16.5 20 16.5 15.37 16.5 15C16.5 14 16 13 14.75 12.98H14.71C13.5 12.98 13 14.01 13 15C13 15.455 13 20 13 20H10V10.5H13V11.78C13 11.78 13.965 10.5 15.905 10.5C17.89 10.5 19.5 11.865 19.5 14.63V20Z" fill="#323232" fill-opacity="0.7"/>
</svg>
